<svg id="Group_92" data-name="Group 92" xmlns="http://www.w3.org/2000/svg" width="20.002" height="20" viewBox="0 0 20.002 20">
  <path id="Path_68" data-name="Path 68" d="M2.727,292.382a2.631,2.631,0,0,0-1.932.8,2.744,2.744,0,0,0,0,3.863,2.631,2.631,0,0,0,1.932.8,2.63,2.63,0,0,0,1.932-.8,2.744,2.744,0,0,0,0-3.863A2.63,2.63,0,0,0,2.727,292.382Z" transform="translate(0 -277.837)" fill="#e27866"/>
  <path id="Path_69" data-name="Path 69" d="M9.005,149.922a12.559,12.559,0,0,0-3.679-2.578A12.735,12.735,0,0,0,.98,146.2H.909a.828.828,0,0,0-.611.241.837.837,0,0,0-.3.668v1.918a.874.874,0,0,0,.234.611.863.863,0,0,0,.589.284,8.835,8.835,0,0,1,5.561,2.621A8.834,8.834,0,0,1,9.005,158.1a.888.888,0,0,0,.895.824h1.918a.837.837,0,0,0,.667-.3.861.861,0,0,0,.242-.682,12.742,12.742,0,0,0-1.144-4.346A12.56,12.56,0,0,0,9.005,149.922Z" transform="translate(0 -138.928)" fill="#e27866"/>
  <path id="Path_70" data-name="Path 70" d="M18.295,11.944A19.914,19.914,0,0,0,14.119,5.9,19.912,19.912,0,0,0,8.075,1.724,19.712,19.712,0,0,0,.952.02H.909A.85.85,0,0,0,.284.276.84.84,0,0,0,0,.929V2.96a.87.87,0,0,0,.249.618.85.85,0,0,0,.6.277A16.093,16.093,0,0,1,6.655,5.3a16.331,16.331,0,0,1,4.773,3.288,16.33,16.33,0,0,1,3.288,4.773,15.879,15.879,0,0,1,1.435,5.8.851.851,0,0,0,.277.6.888.888,0,0,0,.632.249H19.09a.839.839,0,0,0,.653-.284A.822.822,0,0,0,20,19.068,19.71,19.71,0,0,0,18.295,11.944Z" transform="translate(0 -0.02)" fill="#e27866"/>
</svg>
